# xmcd
#
# Track frame offsets: 
#        150
#        28875
#        50929
#        92985
#        110973
#        166880
#        183291
#        198833
#        252894
#
# Disc length: 3530 seconds
#
# Revision: 2
# Processed by: cddbd v1.5.2PL0 Copyright (c) Steve Scherf et al.
# Submitted via: ExactAudioCopy v1.0b3
#
DISCID=800dc809
DTITLE=Willem Breuker Kollektief - Misery
DYEAR=2002
DGENRE=Jazz
TTITLE0=Hap Sap
TTITLE1=Wake Up!
TTITLE2=Thirst IV (The End Of The Rope)
TTITLE3=Angry Jungle
TTITLE4=Hulpverkrabber 911
TTITLE5=My Resistance Is Low
TTITLE6=Senza Parole
TTITLE7=I Remember April
TTITLE8=Musette En Rondeau
EXTD=YEAR: 2002
EXTT0=
EXTT1=
EXTT2=
EXTT3=
EXTT4=
EXTT5=
EXTT6=
EXTT7=
EXTT8=
PLAYORDER=
